<mxfile host="app.diagrams.net" modified="2020-12-20T20:28:40.400Z" agent="5.0 (Windows)" etag="WlK-KEsMq1TzqsmMwxZ4" version="14.1.1" type="github">
  <diagram id="6f5KVJECECar6YocEBXC" name="Page-1">
    <mxGraphModel dx="1221" dy="691" grid="1" gridSize="10" guides="1" tooltips="1" connect="1" arrows="1" fold="1" page="1" pageScale="1" pageWidth="827" pageHeight="1169" math="0" shadow="0">
      <root>
        <mxCell id="0" />
        <mxCell id="1" parent="0" />
        <mxCell id="zYojqFAb5I6xokVoxq5k-1" value="Controller:FlashSaleController" style="shape=umlLifeline;perimeter=lifelinePerimeter;whiteSpace=wrap;html=1;container=1;collapsible=0;recursiveResize=0;outlineConnect=0;" vertex="1" parent="1">
          <mxGeometry x="160" y="40" width="170" height="1520" as="geometry" />
        </mxCell>
        <mxCell id="zYojqFAb5I6xokVoxq5k-2" value="" style="rounded=0;whiteSpace=wrap;html=1;" vertex="1" parent="zYojqFAb5I6xokVoxq5k-1">
          <mxGeometry x="75" y="90" width="20" height="1420" as="geometry" />
        </mxCell>
        <mxCell id="zYojqFAb5I6xokVoxq5k-3" value="Service:FlashSaleService" style="shape=umlLifeline;perimeter=lifelinePerimeter;whiteSpace=wrap;html=1;container=1;collapsible=0;recursiveResize=0;outlineConnect=0;" vertex="1" parent="1">
          <mxGeometry x="480" y="40" width="170" height="1520" as="geometry" />
        </mxCell>
        <mxCell id="zYojqFAb5I6xokVoxq5k-4" value="Dao:FlashSaleDao" style="shape=umlLifeline;perimeter=lifelinePerimeter;whiteSpace=wrap;html=1;container=1;collapsible=0;recursiveResize=0;outlineConnect=0;" vertex="1" parent="1">
          <mxGeometry x="827" y="40" width="170" height="1520" as="geometry" />
        </mxCell>
        <mxCell id="zYojqFAb5I6xokVoxq5k-5" value="Mapper:FalshSaleMapper" style="shape=umlLifeline;perimeter=lifelinePerimeter;whiteSpace=wrap;html=1;container=1;collapsible=0;recursiveResize=0;outlineConnect=0;" vertex="1" parent="1">
          <mxGeometry x="1484" y="40" width="170" height="1520" as="geometry" />
        </mxCell>
        <mxCell id="zYojqFAb5I6xokVoxq5k-6" value="" style="rounded=0;whiteSpace=wrap;html=1;" vertex="1" parent="zYojqFAb5I6xokVoxq5k-5">
          <mxGeometry x="75" y="545" width="20" height="80" as="geometry" />
        </mxCell>
        <mxCell id="zYojqFAb5I6xokVoxq5k-7" value="" style="rounded=0;whiteSpace=wrap;html=1;" vertex="1" parent="zYojqFAb5I6xokVoxq5k-5">
          <mxGeometry x="75" y="1150" width="20" height="80" as="geometry" />
        </mxCell>
        <mxCell id="zYojqFAb5I6xokVoxq5k-8" value="" style="rounded=0;whiteSpace=wrap;html=1;" vertex="1" parent="1">
          <mxGeometry x="555" y="320" width="20" height="1200" as="geometry" />
        </mxCell>
        <mxCell id="zYojqFAb5I6xokVoxq5k-55" value="Dao:GoodSkuDao" style="shape=umlLifeline;perimeter=lifelinePerimeter;whiteSpace=wrap;html=1;container=1;collapsible=0;recursiveResize=0;outlineConnect=0;" vertex="1" parent="1">
          <mxGeometry x="1156" y="40" width="170" height="1520" as="geometry" />
        </mxCell>
        <mxCell id="zYojqFAb5I6xokVoxq5k-56" value="Mapper:GoodSkuMapper" style="shape=umlLifeline;perimeter=lifelinePerimeter;whiteSpace=wrap;html=1;container=1;collapsible=0;recursiveResize=0;outlineConnect=0;" vertex="1" parent="1">
          <mxGeometry x="1750" y="40" width="170" height="1520" as="geometry" />
        </mxCell>
        <mxCell id="zYojqFAb5I6xokVoxq5k-57" value="" style="rounded=0;whiteSpace=wrap;html=1;" vertex="1" parent="zYojqFAb5I6xokVoxq5k-56">
          <mxGeometry x="75" y="545" width="20" height="80" as="geometry" />
        </mxCell>
        <mxCell id="zYojqFAb5I6xokVoxq5k-58" value="" style="rounded=0;whiteSpace=wrap;html=1;" vertex="1" parent="zYojqFAb5I6xokVoxq5k-56">
          <mxGeometry x="75" y="1150" width="20" height="80" as="geometry" />
        </mxCell>
      </root>
    </mxGraphModel>
  </diagram>
</mxfile>
